<svg width="15" height="17" viewBox="0 0 15 17" fill="none" xmlns="http://www.w3.org/2000/svg">
<g id="plus-solid 1">
<path id="Vector" d="M8.57143 2.65625C8.57143 2.06855 8.09264 1.59375 7.50001 1.59375C6.90737 1.59375 6.42858 2.06855 6.42858 2.65625V7.4375H1.60715C1.01452 7.4375 0.535721 7.9123 0.535721 8.5C0.535721 9.0877 1.01452 9.5625 1.60715 9.5625H6.42858V14.3438C6.42858 14.9314 6.90737 15.4062 7.50001 15.4062C8.09264 15.4062 8.57143 14.9314 8.57143 14.3438V9.5625H13.3929C13.9855 9.5625 14.4643 9.0877 14.4643 8.5C14.4643 7.9123 13.9855 7.4375 13.3929 7.4375H8.57143V2.65625Z" fill="white"/>
</g>
</svg>
