<svg width="12" height="17" viewBox="0 0 12 17" fill="none" xmlns="http://www.w3.org/2000/svg">
<g id="xmark-solid 1">
<path id="Vector" d="M10.7062 5.20624C11.0969 4.81562 11.0969 4.18124 10.7062 3.79062C10.3156 3.39999 9.68124 3.39999 9.29062 3.79062L5.99999 7.08437L2.70624 3.79374C2.31562 3.40312 1.68124 3.40312 1.29062 3.79374C0.899994 4.18437 0.899994 4.81874 1.29062 5.20937L4.58437 8.49999L1.29374 11.7937C0.903119 12.1844 0.903119 12.8187 1.29374 13.2094C1.68437 13.6 2.31874 13.6 2.70937 13.2094L5.99999 9.91562L9.29374 13.2062C9.68437 13.5969 10.3187 13.5969 10.7094 13.2062C11.1 12.8156 11.1 12.1812 10.7094 11.7906L7.41562 8.49999L10.7062 5.20624Z" fill="white"/>
</g>
</svg>
